<svg width="203" height="87" xmlns="http://www.w3.org/2000/svg">

 <g>
  <title>Layer 1</title>
  <polygon id="svg_1" stroke-width="1.2px" stroke-miterlimit="10" stroke="#f6f6f6" fill="#f6f6f6" points="2.89 1.638 56.111 1.638 56.111 62.943 52.667 67.525 52.667 5.636 7.065 5.636 2.89 1.638" class="cls-1"/>
  <polygon id="svg_2" stroke-width="1.2px" stroke-miterlimit="10" stroke="#f6f6f6" fill="#f6f6f6" points="45.777 76.6 45.777 11.971 13.815 11.971 10.293 8.716 49.222 8.716 49.222 71.94 45.777 76.6" class="cls-1"/>
  <polygon id="svg_3" stroke-width="1.2px" stroke-miterlimit="10" stroke="#f6f6f6" fill="#f6f6f6" points="142.968 18.176 142.968 80.864 190.433 80.864 194.111 84.309 139.523 84.309 139.523 22.487 142.968 18.176" class="cls-1"/>
  <polygon id="svg_4" stroke-width="1.2px" stroke-miterlimit="10" stroke="#f6f6f6" fill="#f6f6f6" points="149.857 9.759 149.857 73.975 183.637 73.975 187.289 77.42 146.413 77.42 146.413 14.488 149.857 9.759" class="cls-1"/>
  <g id="New_TSL_LOGO">
   <path id="svg_41" stroke-width="1.2px" stroke-miterlimit="10" stroke="#f6f6f6" fill="#f6f6f6" d="m138.96059,1.6298l-2.72437,3.4438s-40.0657,0.01926 -42.72467,0.00962s-19.36855,3.03686 -19.80666,19.79752c0.66519,18.20226 18.28311,19.74087 18.28311,19.74087l10.13516,0.06528s16.15828,0.0309 16.15828,17.01277c-1.66075,16.80024 -18.39611,15.71127 -16.15828,15.71127l-39.95323,0l2.55677,-3.44463l36.84177,0s13.29791,-0.12273 13.29791,-12.18837s-11.42014,-13.53887 -11.42014,-13.53887s-9.79982,0.02845 -11.2374,-0.16292s-20.79018,-1.66261 -21.94859,-23.19539c-0.02215,-17.21474 16.32413,-23.25181 21.95452,-23.25185c3.76872,0 46.74582,0.00091 46.74582,0.00091z" class="cls-1"/>
   <path id="svg_42" stroke-width="1.2px" stroke-miterlimit="10" stroke="#f6f6f6" fill="#f6f6f6" d="m56.67409,84.29934l2.72437,-3.44381s40.06571,-0.01926 42.72468,-0.00961s19.3685,-3.03686 19.80665,-19.79753c-0.66518,-18.20221 -18.28309,-19.74087 -18.28309,-19.74087l-10.13515,-0.06527s-16.15829,-0.0309 -16.15829,-17.01277c1.66074,-16.80025 18.39611,-15.71127 16.15829,-15.71127l39.95322,0l-2.55676,3.44463l-36.8418,0s-13.2979,0.12273 -13.2979,12.18837s11.42014,13.53887 11.42014,13.53887s9.79982,-0.02845 11.2374,0.16293s20.79018,1.66261 21.94859,23.19538c0.02216,17.21473 -16.32413,23.25181 -21.95451,23.25186c-3.76873,0 -46.74583,-0.00091 -46.74583,-0.00091z" class="cls-1"/>
  </g>
 </g>
</svg>